<svg width="30" height="30" viewBox="0 0 30 30" fill="none" xmlns="http://www.w3.org/2000/svg">
<path d="M20.0507 13.7776C18.3667 13.7776 18.1336 15.4558 18.1336 15.4558H21.7114C21.7114 15.4558 21.7347 13.7776 20.0507 13.7776ZM11.9337 15.4558H8.76379V18.3693H11.7764C12.2309 18.3577 13.0816 18.2295 13.0816 16.9534C13.0816 15.4383 11.9337 15.4558 11.9337 15.4558Z" fill="white"/>
<path d="M14.9171 2.0304C7.70911 2.0304 1.86462 7.87488 1.86462 15.0829C1.86462 22.2909 7.70911 28.1354 14.9171 28.1354C22.1251 28.1354 27.9696 22.2909 27.9696 15.0829C27.9696 7.87488 22.1251 2.0304 14.9171 2.0304ZM17.6675 10.0484H22.1601V11.3886H17.6675V10.0484ZM15.3949 17.0874C15.3949 20.4088 11.9337 20.3039 11.9337 20.3039H6.26984V9.40738H11.9337C13.6585 9.40738 15.0162 10.3572 15.0162 12.3092C15.0162 14.2613 13.3555 14.3836 13.3555 14.3836C15.5464 14.3836 15.3949 17.0874 15.3949 17.0874ZM23.7975 16.9067H18.1511C18.1511 18.9287 20.0682 18.8005 20.0682 18.8005C21.8804 18.8005 21.8163 17.6293 21.8163 17.6293H23.7334C23.7334 20.7409 20.0041 20.5253 20.0041 20.5253C15.5348 20.5253 15.8203 16.359 15.8203 16.359C15.8203 16.359 15.8145 12.1752 20.0041 12.1752C24.4151 12.181 23.7975 16.9067 23.7975 16.9067Z" fill="white"/>
<path d="M12.7028 12.4782C12.7028 11.3478 11.9337 11.3478 11.9337 11.3478H8.76379V13.7776H11.7356C12.2483 13.7776 12.7028 13.6087 12.7028 12.4782Z" fill="white"/>
</svg>
