<svg width="27" height="26" viewBox="0 0 27 26" fill="none" xmlns="http://www.w3.org/2000/svg">
<path d="M13.5 0C11.7272 0 9.97167 0.344603 8.33377 1.01413C6.69588 1.68366 5.20765 2.66501 3.95406 3.90214C1.42232 6.40064 0 9.78934 0 13.3228C0 19.2114 3.8745 24.2074 9.234 25.9794C9.909 26.0859 10.125 25.6729 10.125 25.3132V23.0617C6.3855 23.861 5.589 21.2764 5.589 21.2764C4.968 19.731 4.0905 19.318 4.0905 19.318C2.862 18.492 4.185 18.5186 4.185 18.5186C5.535 18.6119 6.2505 19.8909 6.2505 19.8909C7.425 21.9159 9.4095 21.3164 10.179 20.9967C10.3005 20.1307 10.6515 19.5445 11.0295 19.2114C8.0325 18.8783 4.887 17.7326 4.887 12.6566C4.887 11.1778 5.4 9.99206 6.2775 9.04615C6.1425 8.71308 5.67 7.32751 6.4125 5.52894C6.4125 5.52894 7.5465 5.16923 10.125 6.88786C11.1915 6.59476 12.3525 6.44821 13.5 6.44821C14.6475 6.44821 15.8085 6.59476 16.875 6.88786C19.4535 5.16923 20.5875 5.52894 20.5875 5.52894C21.33 7.32751 20.8575 8.71308 20.7225 9.04615C21.6 9.99206 22.113 11.1778 22.113 12.6566C22.113 17.7459 18.954 18.865 15.9435 19.1981C16.4295 19.6111 16.875 20.4238 16.875 21.6628V25.3132C16.875 25.6729 17.091 26.0993 17.7795 25.9794C23.139 24.1941 27 19.2114 27 13.3228C27 11.5732 26.6508 9.84074 25.9724 8.22435C25.2939 6.60796 24.2995 5.13928 23.0459 3.90214C21.7924 2.66501 20.3041 1.68366 18.6662 1.01413C17.0283 0.344603 15.2728 0 13.5 0Z" fill="white"/>
</svg>
