<svg width="26" height="27" viewBox="0 0 26 27" fill="none" xmlns="http://www.w3.org/2000/svg">
<path d="M22.1506 23.0085H18.3011V16.743C18.3011 15.249 18.2722 13.326 16.2933 13.326C14.287 13.326 13.9808 14.952 13.9808 16.6335V23.0085H10.1299V10.125H13.8277V11.88H13.8782C14.3953 10.869 15.652 9.7995 17.5298 9.7995C21.4298 9.7995 22.152 12.4665 22.152 15.936V23.0085H22.1506ZM5.78211 8.3625C5.48825 8.3629 5.1972 8.30305 4.92565 8.18641C4.6541 8.06976 4.40739 7.89861 4.19966 7.68275C3.99193 7.4669 3.82728 7.21059 3.71513 6.92852C3.60298 6.64645 3.54554 6.34417 3.54611 6.039C3.5464 5.57975 3.67782 5.13091 3.92375 4.74922C4.16968 4.36753 4.51908 4.07015 4.92777 3.89468C5.33645 3.71921 5.78606 3.67352 6.21975 3.76341C6.65343 3.8533 7.05171 4.07471 7.36422 4.39966C7.67673 4.72461 7.88943 5.13849 7.97543 5.58897C8.06142 6.03945 8.01685 6.5063 7.84735 6.93048C7.67785 7.35465 7.39103 7.71711 7.02316 7.97201C6.6553 8.2269 6.22435 8.3628 5.78211 8.3625ZM7.71189 23.0085H3.85089V10.125H7.71333V23.0085H7.71189ZM24.0789 0H1.91967C0.856556 0 0 0.87 0 1.9455V25.0545C0 26.13 0.858 27 1.91822 27H24.0731C25.1333 27 26 26.13 26 25.0545V1.9455C26 0.87 25.1333 0 24.0731 0H24.0789Z" fill="white"/>
</svg>
